<?xml version="1.0" encoding="UTF-8"?>
<svg xmlns="http://www.w3.org/2000/svg" xmlns:xlink="http://www.w3.org/1999/xlink" width="25px" height="25px"
    viewBox="0 0 25 25" version="1.1">
    <g id="surface1">
        <path
            style="fill-rule:nonzero;fill:rgb(92.941176%,38.823529%,0%);fill-opacity:1;stroke-width:8;stroke-linecap:butt;stroke-linejoin:miter;stroke:rgb(100%,100%,100%);stroke-opacity:1;stroke-miterlimit:4;"
            d="M 220 399.9875 L 9.96875 229.96875 L 64.96875 190.025 Z M 220 399.9875 "
            transform="matrix(0.0568182,0,0,0.0568182,0,0)" />
        <path
            style="fill-rule:nonzero;fill:rgb(92.941176%,38.823529%,0%);fill-opacity:1;stroke-width:8;stroke-linecap:butt;stroke-linejoin:miter;stroke:rgb(100%,100%,100%);stroke-opacity:1;stroke-miterlimit:4;"
            d="M 220 399.9875 L 64.96875 190.025 L 159.98125 95.0125 Z M 220 399.9875 "
            transform="matrix(0.0568182,0,0,0.0568182,0,0)" />
        <path
            style="fill-rule:nonzero;fill:rgb(92.941176%,38.823529%,0%);fill-opacity:1;stroke-width:8;stroke-linecap:butt;stroke-linejoin:miter;stroke:rgb(100%,100%,100%);stroke-opacity:1;stroke-miterlimit:4;"
            d="M 220 399.9875 L 159.98125 95.0125 L 280.01875 95.0125 Z M 220 399.9875 "
            transform="matrix(0.0568182,0,0,0.0568182,0,0)" />
        <path
            style="fill-rule:nonzero;fill:rgb(92.941176%,38.823529%,0%);fill-opacity:1;stroke-width:8;stroke-linecap:butt;stroke-linejoin:miter;stroke:rgb(100%,100%,100%);stroke-opacity:1;stroke-miterlimit:4;"
            d="M 220 399.9875 L 280.01875 95.0125 L 399.9875 29.975 L 375.03125 190.025 Z M 220 399.9875 "
            transform="matrix(0.0568182,0,0,0.0568182,0,0)" />
        <path
            style="fill-rule:nonzero;fill:rgb(92.941176%,38.823529%,0%);fill-opacity:1;stroke-width:8;stroke-linecap:butt;stroke-linejoin:miter;stroke:rgb(100%,100%,100%);stroke-opacity:1;stroke-miterlimit:4;"
            d="M 220 399.9875 L 375.03125 190.025 L 430.03125 229.96875 Z M 220 399.9875 "
            transform="matrix(0.0568182,0,0,0.0568182,0,0)" />
        <path
            style="fill-rule:nonzero;fill:rgb(100%,100%,100%);fill-opacity:1;stroke-width:8;stroke-linecap:butt;stroke-linejoin:miter;stroke:rgb(100%,100%,100%);stroke-opacity:1;stroke-miterlimit:4;"
            d="M 220 399.9875 L 157.025 348.975 L 220 304.0125 L 282.975 348.975 Z M 220 399.9875 "
            transform="matrix(0.0568182,0,0,0.0568182,0,0)" />
        <path
            style="fill-rule:nonzero;fill:rgb(100%,100%,100%);fill-opacity:1;stroke-width:8;stroke-linecap:butt;stroke-linejoin:miter;stroke:rgb(100%,100%,100%);stroke-opacity:1;stroke-miterlimit:4;"
            d="M 64.96875 190.025 L 40.0125 29.975 L 159.98125 95.0125 Z M 64.96875 190.025 "
            transform="matrix(0.0568182,0,0,0.0568182,0,0)" />
        <path
            style="fill-rule:nonzero;fill:rgb(100%,100%,100%);fill-opacity:1;stroke-width:8;stroke-linecap:butt;stroke-linejoin:miter;stroke:rgb(100%,100%,100%);stroke-opacity:1;stroke-miterlimit:4;"
            d="M 280.01875 95.0125 L 399.9875 29.975 L 375.03125 190.025 Z M 280.01875 95.0125 "
            transform="matrix(0.0568182,0,0,0.0568182,0,0)" />
    </g>
</svg>